<svg width="19" height="18" fill="none" xmlns="http://www.w3.org/2000/svg"><path d="M0 2.195C0 .983.983 0 2.195 0h13.17c1.213 0 2.196.983 2.196 2.195V8.78a.878.878 0 01-1.756 0V2.195a.439.439 0 00-.44-.439H2.196a.439.439 0 00-.439.44v13.17a.44.44 0 00.44.439H8.78a.878.878 0 110 1.756H2.195A2.195 2.195 0 010 15.366V2.196z" fill="#5A15EB"/><path d="M15.388 11.854c.485 0 .878.393.878.878v1.295h1.295a.878.878 0 010 1.756h-1.295v1.339a.878.878 0 01-1.756 0v-1.34h-1.34a.878.878 0 010-1.755h1.34v-1.295c0-.485.393-.878.878-.878z" fill="#5A15EB"/><path fill-rule="evenodd" clip-rule="evenodd" d="M11.192 8.052a3.073 3.073 0 10-4.823 0c-1.421.743-2.418 2.13-2.418 3.802a.878.878 0 001.756 0c0-1.36 1.276-2.634 3.073-2.634 1.798 0 3.074 1.273 3.074 2.634a.878.878 0 001.756 0c0-1.672-.997-3.06-2.418-3.802zM8.78 4.829a1.317 1.317 0 100 2.634 1.317 1.317 0 000-2.634z" fill="#5A15EB"/></svg>