<svg width="1484" height="400" fill="none" xmlns="http://www.w3.org/2000/svg"><path fill="#5A15EB" d="M158 0h1168v400H158z"/><ellipse cx="742.247" cy="200.5" rx="197.247" ry="196.5" fill="#19191C"/><path d="M1483.5 200.5c0 100.515-81.71 182-182.5 182s-182.5-81.485-182.5-182c0-100.514 81.71-182 182.5-182s182.5 81.486 182.5 182zm-752 0c0 100.515-81.707 182-182.5 182s-182.5-81.485-182.5-182c0-100.514 81.707-182 182.5-182s182.5 81.486 182.5 182zm-366 0c0 100.515-81.707 182-182.5 182S.5 301.015.5 200.5c0-100.514 81.707-182 182.5-182s182.5 81.486 182.5 182zm752 0c0 100.515-81.71 182-182.5 182-100.793 0-182.5-81.485-182.5-182 0-100.514 81.707-182 182.5-182 100.79 0 182.5 81.486 182.5 182z" stroke="#19191C"/><mask id="a" style="mask-type:alpha" maskUnits="userSpaceOnUse" x="752" y="18" width="366" height="365"><ellipse cx="935" cy="200.5" rx="183" ry="182.5" fill="#C4C4C4"/></mask><g mask="url(#a)" stroke="#19191C"><path d="M629 261L869 21M583 362L933 12M638 365L987 16M692 369l350-350M747 372l350-349M802 376l350-350M857 379l349-349M911 383l350-350M966 386l350-349m-295 353l350-350m-295 353l349-349"/></g><path d="M741.5 62.5C776.018 62.5 804 34.518 804 0H679c0 34.518 27.982 62.5 62.5 62.5z" fill="#8BC540"/></svg>