<svg width="18" height="20" fill="none" xmlns="http://www.w3.org/2000/svg"><path fill-rule="evenodd" clip-rule="evenodd" d="M1.818 0A1.818 1.818 0 000 1.818v16.364C0 19.186.814 20 1.818 20h4.546a.91.91 0 100-1.818H1.818V1.818H10v3.637a.91.91 0 00.91.909h3.636v3.181a.909.909 0 101.818 0v-4.09c0-.236-.09-.45-.236-.611L12.039.3a.91.91 0 00-.675-.3H1.818zm10 2.773v1.772h1.595l-1.595-1.772z" fill="#5A15EB"/><path fill-rule="evenodd" clip-rule="evenodd" d="M15.454 13.636c0 .56-.168 1.082-.458 1.515a4.544 4.544 0 012.277 3.94.91.91 0 11-1.819 0 2.727 2.727 0 10-5.454 0 .91.91 0 11-1.818 0c0-1.684.916-3.155 2.277-3.94a2.727 2.727 0 114.996-1.515zm-3.636 0a.91.91 0 111.818 0 .91.91 0 01-1.818 0z" fill="#5A15EB"/></svg>