<svg width="626" height="500" fill="none" xmlns="http://www.w3.org/2000/svg"><path d="M624.87 250c0 137.794-112.01 249.5-250.185 249.5S124.5 387.794 124.5 250C124.5 112.206 236.51.5 374.685.5S624.87 112.206 624.87 250z" stroke="#19191C"/><path d="M524.87 250c0 137.794-112.01 249.5-250.185 249.5S24.5 387.794 24.5 250C24.5 112.206 136.51.5 274.685.5S524.87 112.206 524.87 250z" stroke="#19191C"/><path d="M424.87 250c0 137.794-112.01 249.5-250.185 249.5S-75.5 387.794-75.5 250C-75.5 112.206 36.51.5 174.685.5S424.87 112.206 424.87 250z" stroke="#19191C"/><path d="M324.87 250c0 137.794-112.01 249.5-250.185 249.5S-175.5 387.794-175.5 250C-175.5 112.206-63.49.5 74.685.5S324.87 112.206 324.87 250z" stroke="#19191C"/><path d="M224.87 250c0 137.794-112.01 249.5-250.185 249.5S-275.5 387.794-275.5 250C-275.5 112.206-163.49.5-25.315.5S224.87 112.206 224.87 250z" stroke="#19191C"/><path d="M124.87 250c0 137.794-112.01 249.5-250.185 249.5S-375.5 387.794-375.5 250C-375.5 112.206-263.49.5-125.315.5S124.87 112.206 124.87 250z" stroke="#19191C"/><path d="M24.87 250c0 137.794-112.01 249.5-250.185 249.5S-475.5 387.794-475.5 250C-475.5 112.206-363.49.5-225.315.5S24.87 112.206 24.87 250z" stroke="#19191C"/></svg>