<svg width="1020" height="393" fill="none" xmlns="http://www.w3.org/2000/svg"><ellipse cx="197.247" cy="196.5" rx="197.247" ry="196.5" fill="#19191C"/><circle cx="847" cy="197" r="75" fill="#19191C"/><path d="M938.5 196.5c0 100.515-81.707 182-182.5 182s-182.5-81.485-182.5-182c0-100.514 81.707-182 182.5-182s182.5 81.486 182.5 182z" stroke="#19191C"/><path d="M1121.5 196.5c0 100.515-81.71 182-182.5 182-100.793 0-182.5-81.485-182.5-182 0-100.514 81.707-182 182.5-182 100.79 0 182.5 81.486 182.5 182zm-549 0c0 100.515-81.707 182-182.5 182s-182.5-81.485-182.5-182c0-100.514 81.707-182 182.5-182s182.5 81.486 182.5 182z" stroke="#19191C"/><mask id="a" style="mask-type:alpha" maskUnits="userSpaceOnUse" x="207" y="14" width="366" height="365"><ellipse cx="390" cy="196.5" rx="183" ry="182.5" fill="#C4C4C4"/></mask><g mask="url(#a)" stroke="#19191C"><path d="M84 257L324 17M38 358L388 8M93 361L442 12M147 365L497 15M202 368L552 19M257 372L607 22M312 375L661 26M366 379L716 29M421 382L771 33M476 386L826 36M531 389L880 40"/></g></svg>