<svg width="20" height="17" fill="none" xmlns="http://www.w3.org/2000/svg"><path fill-rule="evenodd" clip-rule="evenodd" d="M10.22.027a.91.91 0 00-.44 0L.689 2.3a.91.91 0 000 1.764l.675.169v7.585H.909a.91.91 0 00-.909.91v2.726c0 .503.407.91.91.91h2.726a.91.91 0 00.91-.91v-2.727a.91.91 0 00-.91-.909h-.454v-7.13l.909.226v4.164a.91.91 0 00.438.777c.786-1.298 0 0 0 0l.002.001.003.002.008.005.027.016.091.052a12.16 12.16 0 001.495.686c.972.367 2.335.747 3.845.747 1.51 0 2.873-.38 3.845-.748a12.16 12.16 0 001.495-.685l.091-.052.027-.016.008-.005.004-.002h.001a.91.91 0 00.438-.778V4.914l3.402-.85a.91.91 0 000-1.764L10.221.027zm5.251 9.828c-.476-.785-.5-.825 0 0zM1.818 13.636v.91h.91v-.91h-.91zM14.091 5.37l-3.87.967a.91.91 0 01-.441 0L5.91 5.37v3.163c.224.11.527.247.89.384.846.32 1.982.63 3.2.63 1.218 0 2.354-.31 3.2-.63a10.5 10.5 0 00.89-.384V5.369zM10 4.517L4.657 3.182 10 1.846l5.343 1.336L10 4.517z" fill="#5A15EB"/></svg>