<svg width="25" height="16" fill="none" xmlns="http://www.w3.org/2000/svg"><path d="M24.841 7.512C24.618 7.205 19.296 0 12.5 0 5.703 0 .382 7.205.159 7.511a.831.831 0 000 .977C.382 8.795 5.703 16 12.499 16c6.797 0 12.119-7.205 12.342-7.511a.83.83 0 000-.977zM12.5 14.345c-5.006 0-9.342-4.782-10.626-6.346C3.156 6.435 7.483 1.655 12.5 1.655c5.006 0 9.342 4.781 10.626 6.346-1.282 1.564-5.61 6.344-10.626 6.344z" fill="#101010"/><path d="M12.5 3.034c-2.727 0-4.945 2.227-4.945 4.965s2.218 4.966 4.945 4.966c2.726 0 4.945-2.228 4.945-4.966S15.226 3.034 12.5 3.034zm0 8.276A3.307 3.307 0 019.203 8 3.307 3.307 0 0112.5 4.688a3.307 3.307 0 013.296 3.31 3.307 3.307 0 01-3.296 3.31z" fill="#101010"/></svg>