<svg width="722" height="1125" fill="none" xmlns="http://www.w3.org/2000/svg"><g opacity=".5"><path fill-rule="evenodd" clip-rule="evenodd" d="M19.076 51.49l48.661 48.661 1.414-1.414L20.49 50.076 69.152 1.414 67.736 0l-48.66 48.661L-29.586 0-31 1.414l48.662 48.662L-31 98.737l1.414 1.414L19.076 51.49zm0 131l48.661 48.661 1.414-1.414-48.661-48.661 48.662-48.662L67.736 131l-48.661 48.662L-29.586 131-31 132.414l48.662 48.662L-31 229.737l1.414 1.414 48.662-48.661zm0 131l48.661 48.661 1.414-1.414-48.661-48.661 48.662-48.662L67.736 262l-48.661 48.662L-29.586 262-31 263.414l48.662 48.662L-31 360.737l1.414 1.414 48.662-48.661zm0 131l48.661 48.661 1.414-1.414-48.661-48.661 48.662-48.662L67.736 393l-48.661 48.662L-29.586 393-31 394.414l48.662 48.662L-31 491.737l1.414 1.414 48.662-48.661zm0 131l48.661 48.661 1.414-1.414-48.661-48.661 48.662-48.662L67.736 524l-48.661 48.662L-29.586 524-31 525.414l48.662 48.662L-31 622.737l1.414 1.414 48.662-48.661zm0 131l48.661 48.661 1.414-1.414-48.661-48.661 48.662-48.662L67.736 655l-48.661 48.662L-29.586 655-31 656.414l48.662 48.662L-31 753.737l1.414 1.414 48.662-48.661zm0 131l48.661 48.661 1.414-1.414-48.661-48.661 48.662-48.662L67.736 786l-48.661 48.662L-29.586 786-31 787.414l48.662 48.662L-31 884.737l1.414 1.414 48.662-48.661zm0 131l48.661 48.66 1.414-1.41-48.661-48.664 48.662-48.662L67.736 917l-48.661 48.662L-29.586 917-31 918.414l48.662 48.662L-31 1015.74l1.414 1.41 48.662-48.66zm0 131l48.661 48.66 1.414-1.41-48.661-48.66 48.662-48.67-1.415-1.41-48.661 48.66-48.662-48.66-1.414 1.41 48.662 48.67L-31 1146.74l1.414 1.41 48.662-48.66zm130.426-1048l48.661 48.661 1.415-1.414-48.662-48.661 48.662-48.662L198.163 0l-48.661 48.661L100.84 0l-1.414 1.414 48.662 48.662-48.662 48.661 1.414 1.414 48.662-48.661zm0 131l48.661 48.661 1.415-1.414-48.662-48.661 48.662-48.662-1.415-1.414-48.661 48.662L100.84 131l-1.414 1.414 48.662 48.662-48.662 48.661 1.414 1.414 48.662-48.661zm0 131l48.661 48.661 1.415-1.414-48.662-48.661 48.662-48.662-1.415-1.414-48.661 48.662L100.84 262l-1.414 1.414 48.662 48.662-48.662 48.661 1.414 1.414 48.662-48.661zm0 131l48.661 48.661 1.415-1.414-48.662-48.661 48.662-48.662-1.415-1.414-48.661 48.662L100.84 393l-1.414 1.414 48.662 48.662-48.662 48.661 1.414 1.414 48.662-48.661zm0 131l48.661 48.661 1.415-1.414-48.662-48.661 48.662-48.662-1.415-1.414-48.661 48.662L100.84 524l-1.414 1.414 48.662 48.662-48.662 48.661 1.414 1.414 48.662-48.661zm0 131l48.661 48.661 1.415-1.414-48.662-48.661 48.662-48.662-1.415-1.414-48.661 48.662L100.84 655l-1.414 1.414 48.662 48.662-48.662 48.661 1.414 1.414 48.662-48.661zm0 131l48.661 48.661 1.415-1.414-48.662-48.661 48.662-48.662-1.415-1.414-48.661 48.662L100.84 786l-1.414 1.414 48.662 48.662-48.662 48.661 1.414 1.414 48.662-48.661zm0 131l48.661 48.66 1.415-1.41-48.662-48.664 48.662-48.662-1.415-1.414-48.661 48.662L100.84 917l-1.414 1.414 48.662 48.662-48.662 48.664 1.414 1.41 48.662-48.66zm0 131l48.661 48.66 1.415-1.41-48.662-48.66 48.662-48.67-1.415-1.41-48.661 48.66L100.84 1048l-1.414 1.41 48.662 48.67-48.662 48.66 1.414 1.41 48.662-48.66zm130.426-1048l48.662 48.661 1.414-1.414-48.662-48.661 48.662-48.662L328.59 0l-48.662 48.661L231.267 0l-1.415 1.414 48.662 48.662-48.662 48.661 1.415 1.414 48.661-48.661zm0 131l48.662 48.661 1.414-1.414-48.662-48.661 48.662-48.662L328.59 131l-48.662 48.662L231.267 131l-1.415 1.414 48.662 48.662-48.662 48.661 1.415 1.414 48.661-48.661zm0 131l48.662 48.661 1.414-1.414-48.662-48.661 48.662-48.662L328.59 262l-48.662 48.662L231.267 262l-1.415 1.414 48.662 48.662-48.662 48.661 1.415 1.414 48.661-48.661zm0 131l48.662 48.661 1.414-1.414-48.662-48.661 48.662-48.662L328.59 393l-48.662 48.662L231.267 393l-1.415 1.414 48.662 48.662-48.662 48.661 1.415 1.414 48.661-48.661zm0 131l48.662 48.661 1.414-1.414-48.662-48.661 48.662-48.662L328.59 524l-48.662 48.662L231.267 524l-1.415 1.414 48.662 48.662-48.662 48.661 1.415 1.414 48.661-48.661zm0 131l48.662 48.661 1.414-1.414-48.662-48.661 48.662-48.662L328.59 655l-48.662 48.662L231.267 655l-1.415 1.414 48.662 48.662-48.662 48.661 1.415 1.414 48.661-48.661zm0 131l48.662 48.661 1.414-1.414-48.662-48.661 48.662-48.662L328.59 786l-48.662 48.662L231.267 786l-1.415 1.414 48.662 48.662-48.662 48.661 1.415 1.414 48.661-48.661zm0 131l48.662 48.66 1.414-1.41-48.662-48.664 48.662-48.662L328.59 917l-48.662 48.662L231.267 917l-1.415 1.414 48.662 48.662-48.662 48.664 1.415 1.41 48.661-48.66zm0 131l48.662 48.66 1.414-1.41-48.662-48.66 48.662-48.67-1.414-1.41-48.662 48.66-48.661-48.66-1.415 1.41 48.662 48.67-48.662 48.66 1.415 1.41 48.661-48.66zm130.426-1048l48.662 48.661 1.414-1.414-48.662-48.661L460.43 1.414 459.016 0l-48.662 48.661L361.693 0l-1.415 1.414 48.662 48.662-48.662 48.661 1.415 1.414 48.661-48.661zm0 131l48.662 48.661 1.414-1.414-48.662-48.661 48.662-48.662-1.414-1.414-48.662 48.662L361.693 131l-1.415 1.414 48.662 48.662-48.662 48.661 1.415 1.414 48.661-48.661zm0 131l48.662 48.661 1.414-1.414-48.662-48.661 48.662-48.662-1.414-1.414-48.662 48.662L361.693 262l-1.415 1.414 48.662 48.662-48.662 48.661 1.415 1.414 48.661-48.661zm0 131l48.662 48.661 1.414-1.414-48.662-48.661 48.662-48.662-1.414-1.414-48.662 48.662L361.693 393l-1.415 1.414 48.662 48.662-48.662 48.661 1.415 1.414 48.661-48.661zm0 131l48.662 48.661 1.414-1.414-48.662-48.661 48.662-48.662-1.414-1.414-48.662 48.662L361.693 524l-1.415 1.414 48.662 48.662-48.662 48.661 1.415 1.414 48.661-48.661zm0 131l48.662 48.661 1.414-1.414-48.662-48.661 48.662-48.662-1.414-1.414-48.662 48.662L361.693 655l-1.415 1.414 48.662 48.662-48.662 48.661 1.415 1.414 48.661-48.661zm0 131l48.662 48.661 1.414-1.414-48.662-48.661 48.662-48.662-1.414-1.414-48.662 48.662L361.693 786l-1.415 1.414 48.662 48.662-48.662 48.661 1.415 1.414 48.661-48.661zm0 131l48.662 48.66 1.414-1.41-48.662-48.664 48.662-48.662-1.414-1.414-48.662 48.662L361.693 917l-1.415 1.414 48.662 48.662-48.662 48.664 1.415 1.41 48.661-48.66zm0 131l48.662 48.66 1.414-1.41-48.662-48.66 48.662-48.67-1.414-1.41-48.662 48.66-48.661-48.66-1.415 1.41 48.662 48.67-48.662 48.66 1.415 1.41 48.661-48.66zm130.426-1048l48.662 48.661 1.414-1.414-48.661-48.661 48.661-48.662L589.442 0 540.78 48.661 492.119 0l-1.414 1.414 48.661 48.662-48.661 48.661 1.414 1.414L540.78 51.49zm0 131l48.662 48.661 1.414-1.414-48.661-48.661 48.661-48.662-1.414-1.414-48.662 48.662L492.119 131l-1.414 1.414 48.661 48.662-48.661 48.661 1.414 1.414 48.661-48.661zm0 131l48.662 48.661 1.414-1.414-48.661-48.661 48.661-48.662-1.414-1.414-48.662 48.662L492.119 262l-1.414 1.414 48.661 48.662-48.661 48.661 1.414 1.414 48.661-48.661zm0 131l48.662 48.661 1.414-1.414-48.661-48.661 48.661-48.662-1.414-1.414-48.662 48.662L492.119 393l-1.414 1.414 48.661 48.662-48.661 48.661 1.414 1.414 48.661-48.661zm0 131l48.662 48.661 1.414-1.414-48.661-48.661 48.661-48.662-1.414-1.414-48.662 48.662L492.119 524l-1.414 1.414 48.661 48.662-48.661 48.661 1.414 1.414 48.661-48.661zm0 131l48.662 48.661 1.414-1.414-48.661-48.661 48.661-48.662-1.414-1.414-48.662 48.662L492.119 655l-1.414 1.414 48.661 48.662-48.661 48.661 1.414 1.414 48.661-48.661zm0 131l48.662 48.661 1.414-1.414-48.661-48.661 48.661-48.662-1.414-1.414-48.662 48.662L492.119 786l-1.414 1.414 48.661 48.662-48.661 48.661 1.414 1.414 48.661-48.661zm0 131l48.662 48.66 1.414-1.41-48.661-48.664 48.661-48.662-1.414-1.414-48.662 48.662L492.119 917l-1.414 1.414 48.661 48.662-48.661 48.664 1.414 1.41 48.661-48.66zm0 131l48.662 48.66 1.414-1.41-48.661-48.66 48.661-48.67-1.414-1.41-48.662 48.66-48.661-48.66-1.414 1.41 48.661 48.67-48.661 48.66 1.414 1.41 48.661-48.66zm130.426-1048l48.662 48.661 1.414-1.414-48.661-48.661 48.661-48.662L719.868 0l-48.662 48.661L622.545 0l-1.414 1.414 48.661 48.662-48.661 48.661 1.414 1.414 48.661-48.661zm0 131l48.662 48.661 1.414-1.414-48.661-48.661 48.661-48.662-1.414-1.414-48.662 48.662L622.545 131l-1.414 1.414 48.661 48.662-48.661 48.661 1.414 1.414 48.661-48.661zm0 131l48.662 48.661 1.414-1.414-48.661-48.661 48.661-48.662-1.414-1.414-48.662 48.662L622.545 262l-1.414 1.414 48.661 48.662-48.661 48.661 1.414 1.414 48.661-48.661zm0 131l48.662 48.661 1.414-1.414-48.661-48.661 48.661-48.662-1.414-1.414-48.662 48.662L622.545 393l-1.414 1.414 48.661 48.662-48.661 48.661 1.414 1.414 48.661-48.661zm0 131l48.662 48.661 1.414-1.414-48.661-48.661 48.661-48.662-1.414-1.414-48.662 48.662L622.545 524l-1.414 1.414 48.661 48.662-48.661 48.661 1.414 1.414 48.661-48.661zm0 131l48.662 48.661 1.414-1.414-48.661-48.661 48.661-48.662-1.414-1.414-48.662 48.662L622.545 655l-1.414 1.414 48.661 48.662-48.661 48.661 1.414 1.414 48.661-48.661zm0 131l48.662 48.661 1.414-1.414-48.661-48.661 48.661-48.662-1.414-1.414-48.662 48.662L622.545 786l-1.414 1.414 48.661 48.662-48.661 48.661 1.414 1.414 48.661-48.661zm0 131l48.662 48.66 1.414-1.41-48.661-48.664 48.661-48.662-1.414-1.414-48.662 48.662L622.545 917l-1.414 1.414 48.661 48.662-48.661 48.664 1.414 1.41 48.661-48.66zm0 131l48.662 48.66 1.414-1.41-48.661-48.66 48.661-48.67-1.414-1.41-48.662 48.66-48.661-48.66-1.414 1.41 48.661 48.67-48.661 48.66 1.414 1.41 48.661-48.66z" fill="#fff"/><circle cx="19.426" cy="50" r="10" fill="#DCDFE2"/><circle cx="19.426" cy="181" r="10" fill="#DCDFE2"/><circle cx="19.426" cy="313" r="10" fill="#DCDFE2"/><circle cx="19.426" cy="443" r="10" fill="#DCDFE2"/><circle cx="21.426" cy="574" r="10" fill="#DCDFE2"/><circle cx="19.426" cy="705" r="10" fill="#DCDFE2"/><circle cx="19.426" cy="836" r="10" fill="#DCDFE2"/><circle cx="20.426" cy="967" r="10" fill="#DCDFE2"/><circle cx="20.426" cy="1098" r="10" fill="#DCDFE2"/><circle cx="149.426" cy="50" r="10" fill="#DCDFE2"/><circle cx="149.426" cy="181" r="10" fill="#DCDFE2"/><circle cx="149.426" cy="313" r="10" fill="#DCDFE2"/><circle cx="149.426" cy="443" r="10" fill="#DCDFE2"/><circle cx="151.426" cy="574" r="10" fill="#DCDFE2"/><circle cx="149.426" cy="705" r="10" fill="#DCDFE2"/><circle cx="149.426" cy="836" r="10" fill="#DCDFE2"/><circle cx="150.426" cy="967" r="10" fill="#DCDFE2"/><circle cx="150.426" cy="1098" r="10" fill="#DCDFE2"/><circle cx="279.426" cy="50" r="10" fill="#DCDFE2"/><circle cx="279.426" cy="181" r="10" fill="#DCDFE2"/><circle cx="279.426" cy="313" r="10" fill="#DCDFE2"/><circle cx="279.426" cy="443" r="10" fill="#DCDFE2"/><circle cx="279.426" cy="574" r="10" fill="#DCDFE2"/><circle cx="279.426" cy="705" r="10" fill="#DCDFE2"/><circle cx="279.426" cy="836" r="10" fill="#DCDFE2"/><circle cx="280.426" cy="967" r="10" fill="#DCDFE2"/><circle cx="280.426" cy="1098" r="10" fill="#DCDFE2"/><circle cx="409.426" cy="50" r="10" fill="#DCDFE2"/><circle cx="409.426" cy="181" r="10" fill="#DCDFE2"/><circle cx="409.426" cy="313" r="10" fill="#DCDFE2"/><circle cx="409.426" cy="445" r="10" fill="#DCDFE2"/><circle cx="409.426" cy="577" r="10" fill="#DCDFE2"/><circle cx="410.426" cy="705" r="10" fill="#DCDFE2"/><circle cx="409.426" cy="841" r="10" fill="#DCDFE2"/><circle cx="410.426" cy="967" r="10" fill="#DCDFE2"/><circle cx="410.426" cy="1098" r="10" fill="#DCDFE2"/><circle cx="539.426" cy="50" r="10" fill="#DCDFE2"/><circle cx="539.426" cy="181" r="10" fill="#DCDFE2"/><circle cx="539.426" cy="313" r="10" fill="#DCDFE2"/><circle cx="539.426" cy="445" r="10" fill="#DCDFE2"/><circle cx="539.426" cy="577" r="10" fill="#DCDFE2"/><circle cx="540.426" cy="705" r="10" fill="#DCDFE2"/><circle cx="540.426" cy="836" r="10" fill="#DCDFE2"/><circle cx="540.426" cy="967" r="10" fill="#DCDFE2"/><circle cx="540.426" cy="1098" r="10" fill="#DCDFE2"/><circle cx="669.426" cy="50" r="10" fill="#DCDFE2"/><circle cx="669.426" cy="181" r="10" fill="#DCDFE2"/><circle cx="669.426" cy="313" r="10" fill="#DCDFE2"/><circle cx="670.426" cy="443" r="10" fill="#DCDFE2"/><circle cx="670.426" cy="574" r="10" fill="#DCDFE2"/><circle cx="670.426" cy="705" r="10" fill="#DCDFE2"/><circle cx="670.426" cy="836" r="10" fill="#DCDFE2"/><circle cx="670.426" cy="967" r="10" fill="#DCDFE2"/><circle cx="670.426" cy="1098" r="10" fill="#DCDFE2"/></g></svg>