<svg width="20" height="13" fill="none" xmlns="http://www.w3.org/2000/svg"><path opacity=".5" fill-rule="evenodd" clip-rule="evenodd" d="M0 .91A.91.91 0 01.91 0h18.18a.91.91 0 01.91.91v10.908a.91.91 0 01-.91.91H.91a.91.91 0 01-.91-.91V.91zm1.818 4.454v2a4.55 4.55 0 013.546 3.545h9.272a4.55 4.55 0 013.546-3.545v-2a4.55 4.55 0 01-3.546-3.546H5.364a4.55 4.55 0 01-3.546 3.546zm1.663-3.546H1.818v1.663a2.735 2.735 0 001.663-1.663zm13.038 0c.274.775.888 1.39 1.663 1.663V1.818h-1.663zm1.663 7.428a2.735 2.735 0 00-1.663 1.663h1.663V9.246zm-14.7 1.663a2.735 2.735 0 00-1.664-1.663v1.663h1.663zm3.336-4.545c0-1.846 1.277-3.637 3.182-3.637s3.182 1.79 3.182 3.637C13.182 8.21 11.905 10 10 10S6.818 8.21 6.818 6.364zM10 4.545c-.605 0-1.364.652-1.364 1.819 0 1.166.76 1.818 1.364 1.818.605 0 1.364-.652 1.364-1.818 0-1.167-.76-1.819-1.364-1.819z" fill="#979FAA"/></svg>