<svg width="200" height="393" fill="none" xmlns="http://www.w3.org/2000/svg"><g opacity=".5"><mask id="a" fill="#fff"><path d="M394.494 196.5a195.86 195.86 0 01-15.014 75.197 196.447 196.447 0 01-42.758 63.749 197.296 197.296 0 01-63.992 42.596A197.898 197.898 0 01197.247 393a197.898 197.898 0 01-75.483-14.958 197.294 197.294 0 01-63.992-42.596 196.44 196.44 0 01-42.758-63.749A195.85 195.85 0 010 196.5h394.494z"/></mask><path d="M394.494 196.5a195.86 195.86 0 01-15.014 75.197 196.447 196.447 0 01-42.758 63.749 197.296 197.296 0 01-63.992 42.596A197.898 197.898 0 01197.247 393a197.898 197.898 0 01-75.483-14.958 197.294 197.294 0 01-63.992-42.596 196.44 196.44 0 01-42.758-63.749A195.85 195.85 0 010 196.5h394.494z" fill="#19191C" stroke="#979FAA" stroke-width="2" mask="url(#a)"/></g><path opacity=".5" d="M294.618 295c0 53.846-43.817 97.5-97.873 97.5-54.055 0-97.872-43.654-97.872-97.5s43.817-97.5 97.872-97.5c54.056 0 97.873 43.654 97.873 97.5z" fill="#19191C" stroke="#979FAA"/><path d="M145.994 279a49.993 49.993 0 0114.645-35.355A50.007 50.007 0 01195.994 229a49.993 49.993 0 0135.355 14.645A50.007 50.007 0 01245.994 279h-100z" fill="#5A15EB"/></svg>