<svg width="50" height="50" fill="none" xmlns="http://www.w3.org/2000/svg"><rect opacity=".3" x=".5" y=".5" width="49" height="49" rx="24.5" fill="#DCDFE2" stroke="#979FAA"/><path fill-rule="evenodd" clip-rule="evenodd" d="M23.65 14.082a10.988 10.988 0 0111.91 13.892l-7.585 7.587a10.987 10.987 0 11-4.325-21.48zm8.03-.224a12.987 12.987 0 10-2.885 23.546 1 1 0 00.414-.25l7.946-7.946a1 1 0 00.249-.414 12.987 12.987 0 00-5.724-14.936zm-9.706 8.617a1.5 1.5 0 11-3 0 1.5 1.5 0 013 0zm7.5 1.5a1.5 1.5 0 100-3 1.5 1.5 0 000 3zm1.564 4.5a1 1 0 00-1.732-1 5.004 5.004 0 01-8.663 0 1 1 0 10-1.732 1 7.002 7.002 0 0012.127 0z" fill="#5A15EB"/></svg>