<svg width="19" height="18" viewBox="0 0 19 18" fill="none" xmlns="http://www.w3.org/2000/svg">
<path d="M0 2.19512C0 0.982791 0.982791 0 2.19512 0H15.3659C16.5782 0 17.561 0.982801 17.561 2.19512V8.78049C17.561 9.26542 17.1679 9.65854 16.6829 9.65854C16.198 9.65854 15.8049 9.26542 15.8049 8.78049V2.19512C15.8049 1.95265 15.6083 1.7561 15.3659 1.7561H2.19512C1.95266 1.7561 1.7561 1.95266 1.7561 2.19512V15.3659C1.7561 15.6083 1.95265 15.8049 2.19512 15.8049H8.78049C9.26542 15.8049 9.65854 16.198 9.65854 16.6829C9.65854 17.1679 9.26542 17.561 8.78049 17.561H2.19512C0.982801 17.561 0 16.5782 0 15.3659V2.19512Z" fill="#5A15EB"/>
<path d="M15.3882 11.8537C15.8731 11.8537 16.2662 12.2468 16.2662 12.7317V14.0265H17.561C18.0459 14.0265 18.439 14.4196 18.439 14.9045C18.439 15.3895 18.0459 15.7826 17.561 15.7826H16.2662V17.122C16.2662 17.6069 15.8731 18 15.3882 18C14.9032 18 14.5101 17.6069 14.5101 17.122V15.7826H13.1707C12.6858 15.7826 12.2927 15.3895 12.2927 14.9045C12.2927 14.4196 12.6858 14.0265 13.1707 14.0265H14.5101V12.7317C14.5101 12.2468 14.9032 11.8537 15.3882 11.8537Z" fill="#5A15EB"/>
<path fill-rule="evenodd" clip-rule="evenodd" d="M11.192 8.05151C11.6063 7.52781 11.8537 6.86596 11.8537 6.14634C11.8537 4.44908 10.4778 3.07317 8.78049 3.07317C7.08322 3.07317 5.70732 4.44908 5.70732 6.14634C5.70732 6.86596 5.95466 7.52781 6.36896 8.05151C4.94795 8.79493 3.95122 10.1816 3.95122 11.8537C3.95122 12.3386 4.34434 12.7317 4.82927 12.7317C5.3142 12.7317 5.70732 12.3386 5.70732 11.8537C5.70732 10.4932 6.98313 9.21951 8.78049 9.21951C10.5778 9.21951 11.8537 10.4932 11.8537 11.8537C11.8537 12.3386 12.2468 12.7317 12.7317 12.7317C13.2166 12.7317 13.6098 12.3386 13.6098 11.8537C13.6098 10.1816 12.613 8.79493 11.192 8.05151ZM8.78049 4.82927C8.05309 4.82927 7.46341 5.41894 7.46341 6.14634C7.46341 6.87374 8.05309 7.46341 8.78049 7.46341C9.50789 7.46341 10.0976 6.87374 10.0976 6.14634C10.0976 5.41894 9.50789 4.82927 8.78049 4.82927Z" fill="#5A15EB"/>
</svg>
