<svg width="1484" height="400" viewBox="0 0 1484 400" fill="none" xmlns="http://www.w3.org/2000/svg">
<rect x="158" width="1168" height="400" fill="#5A15EB"/>
<ellipse cx="742.247" cy="200.5" rx="197.247" ry="196.5" fill="#19191C"/>
<path d="M1483.5 200.5C1483.5 301.015 1401.79 382.5 1301 382.5C1200.21 382.5 1118.5 301.015 1118.5 200.5C1118.5 99.9855 1200.21 18.5 1301 18.5C1401.79 18.5 1483.5 99.9855 1483.5 200.5Z" stroke="#19191C"/>
<path d="M731.5 200.5C731.5 301.015 649.793 382.5 549 382.5C448.207 382.5 366.5 301.015 366.5 200.5C366.5 99.9855 448.207 18.5 549 18.5C649.793 18.5 731.5 99.9855 731.5 200.5Z" stroke="#19191C"/>
<path d="M365.5 200.5C365.5 301.015 283.793 382.5 183 382.5C82.2067 382.5 0.5 301.015 0.5 200.5C0.5 99.9855 82.2067 18.5 183 18.5C283.793 18.5 365.5 99.9855 365.5 200.5Z" stroke="#19191C"/>
<path d="M1117.5 200.5C1117.5 301.015 1035.79 382.5 935 382.5C834.207 382.5 752.5 301.015 752.5 200.5C752.5 99.9855 834.207 18.5 935 18.5C1035.79 18.5 1117.5 99.9855 1117.5 200.5Z" stroke="#19191C"/>
<mask id="mask0_467_13" style="mask-type:alpha" maskUnits="userSpaceOnUse" x="752" y="18" width="366" height="365">
<ellipse cx="935" cy="200.5" rx="183" ry="182.5" fill="#C4C4C4"/>
</mask>
<g mask="url(#mask0_467_13)">
<path d="M629 261L869 21" stroke="#19191C"/>
<path d="M583 362L933 12" stroke="#19191C"/>
<path d="M638 365L987 16" stroke="#19191C"/>
<path d="M692 369L1042 19" stroke="#19191C"/>
<path d="M747 372L1097 23" stroke="#19191C"/>
<path d="M802 376L1152 26" stroke="#19191C"/>
<path d="M857 379L1206 30" stroke="#19191C"/>
<path d="M911 383L1261 33" stroke="#19191C"/>
<path d="M966 386L1316 37" stroke="#19191C"/>
<path d="M1021 390L1371 40" stroke="#19191C"/>
<path d="M1076 393L1425 44" stroke="#19191C"/>
</g>
<path d="M741.5 62.5C776.018 62.5 804 34.5178 804 0L679 -1.09278e-05C679 34.5178 706.982 62.5 741.5 62.5Z" fill="#8BC540"/>
</svg>
