<svg width="18" height="20" viewBox="0 0 18 20" fill="none" xmlns="http://www.w3.org/2000/svg">
<path fill-rule="evenodd" clip-rule="evenodd" d="M1.81818 0C0.814027 0 0 0.814027 0 1.81818V18.1818C0 19.186 0.814036 20 1.81818 20H6.36364C6.86571 20 7.27273 19.593 7.27273 19.0909C7.27273 18.5888 6.86571 18.1818 6.36364 18.1818H1.81818V1.81818H10V5.45455C10 5.95662 10.407 6.36364 10.9091 6.36364H14.5455V9.54545C14.5455 10.0475 14.9525 10.4545 15.4545 10.4545C15.9566 10.4545 16.3636 10.0475 16.3636 9.54545V5.45455C16.3636 5.21944 16.2744 5.00518 16.1279 4.84379L12.0394 0.300941C11.867 0.109383 11.6214 0 11.3636 0H1.81818ZM11.8182 2.77309V4.54545H13.4133L11.8182 2.77309Z" fill="#5A15EB"/>
<path fill-rule="evenodd" clip-rule="evenodd" d="M15.4545 13.6364C15.4545 14.1968 15.2855 14.7178 14.9956 15.151C16.3567 15.9363 17.2727 17.4066 17.2727 19.0909C17.2727 19.593 16.8657 20 16.3636 20C15.8616 20 15.4545 19.593 15.4545 19.0909C15.4545 17.5847 14.2335 16.3636 12.7273 16.3636C11.221 16.3636 10 17.5847 10 19.0909C10 19.593 9.59299 20 9.09091 20C8.58883 20 8.18182 19.593 8.18182 19.0909C8.18182 17.4066 9.09787 15.9363 10.4589 15.151C10.169 14.7178 10 14.1968 10 13.6364C10 12.1301 11.221 10.9091 12.7273 10.9091C14.2335 10.9091 15.4545 12.1301 15.4545 13.6364ZM11.8182 13.6364C11.8182 13.1343 12.2252 12.7273 12.7273 12.7273C13.2294 12.7273 13.6364 13.1343 13.6364 13.6364C13.6364 14.1384 13.2294 14.5455 12.7273 14.5455C12.2252 14.5455 11.8182 14.1384 11.8182 13.6364Z" fill="#5A15EB"/>
</svg>
