<svg width="1020" height="393" viewBox="0 0 1020 393" fill="none" xmlns="http://www.w3.org/2000/svg">
<ellipse cx="197.247" cy="196.5" rx="197.247" ry="196.5" fill="#19191C"/>
<circle cx="847" cy="197" r="75" fill="#19191C"/>
<path d="M938.5 196.5C938.5 297.015 856.793 378.5 756 378.5C655.207 378.5 573.5 297.015 573.5 196.5C573.5 95.9855 655.207 14.5 756 14.5C856.793 14.5 938.5 95.9855 938.5 196.5Z" stroke="#19191C"/>
<path d="M1121.5 196.5C1121.5 297.015 1039.79 378.5 939 378.5C838.207 378.5 756.5 297.015 756.5 196.5C756.5 95.9855 838.207 14.5 939 14.5C1039.79 14.5 1121.5 95.9855 1121.5 196.5Z" stroke="#19191C"/>
<path d="M572.5 196.5C572.5 297.015 490.793 378.5 390 378.5C289.207 378.5 207.5 297.015 207.5 196.5C207.5 95.9855 289.207 14.5 390 14.5C490.793 14.5 572.5 95.9855 572.5 196.5Z" stroke="#19191C"/>
<mask id="mask0_477_24" style="mask-type:alpha" maskUnits="userSpaceOnUse" x="207" y="14" width="366" height="365">
<ellipse cx="390" cy="196.5" rx="183" ry="182.5" fill="#C4C4C4"/>
</mask>
<g mask="url(#mask0_477_24)">
<path d="M84 257L324 17" stroke="#19191C"/>
<path d="M38 358L388 8" stroke="#19191C"/>
<path d="M93 361L442 12" stroke="#19191C"/>
<path d="M147 365L497 15" stroke="#19191C"/>
<path d="M202 368L552 19" stroke="#19191C"/>
<path d="M257 372L607 22" stroke="#19191C"/>
<path d="M312 375L661 26" stroke="#19191C"/>
<path d="M366 379L716 29" stroke="#19191C"/>
<path d="M421 382L771 33" stroke="#19191C"/>
<path d="M476 386L826 36" stroke="#19191C"/>
<path d="M531 389L880 40" stroke="#19191C"/>
</g>
</svg>
