<svg width="626" height="500" viewBox="0 0 626 500" fill="none" xmlns="http://www.w3.org/2000/svg">
<path d="M624.87 250C624.87 387.794 512.86 499.5 374.685 499.5C236.51 499.5 124.5 387.794 124.5 250C124.5 112.206 236.51 0.5 374.685 0.5C512.86 0.5 624.87 112.206 624.87 250Z" stroke="#19191C"/>
<path d="M524.87 250C524.87 387.794 412.86 499.5 274.685 499.5C136.51 499.5 24.5 387.794 24.5 250C24.5 112.206 136.51 0.5 274.685 0.5C412.86 0.5 524.87 112.206 524.87 250Z" stroke="#19191C"/>
<path d="M424.87 250C424.87 387.794 312.86 499.5 174.685 499.5C36.5103 499.5 -75.5 387.794 -75.5 250C-75.5 112.206 36.5103 0.5 174.685 0.5C312.86 0.5 424.87 112.206 424.87 250Z" stroke="#19191C"/>
<path d="M324.87 250C324.87 387.794 212.86 499.5 74.6849 499.5C-63.4897 499.5 -175.5 387.794 -175.5 250C-175.5 112.206 -63.4897 0.5 74.6849 0.5C212.86 0.5 324.87 112.206 324.87 250Z" stroke="#19191C"/>
<path d="M224.87 250C224.87 387.794 112.86 499.5 -25.3151 499.5C-163.49 499.5 -275.5 387.794 -275.5 250C-275.5 112.206 -163.49 0.5 -25.3151 0.5C112.86 0.5 224.87 112.206 224.87 250Z" stroke="#19191C"/>
<path d="M124.87 250C124.87 387.794 12.8596 499.5 -125.315 499.5C-263.49 499.5 -375.5 387.794 -375.5 250C-375.5 112.206 -263.49 0.5 -125.315 0.5C12.8596 0.5 124.87 112.206 124.87 250Z" stroke="#19191C"/>
<path d="M24.8699 250C24.8699 387.794 -87.1404 499.5 -225.315 499.5C-363.49 499.5 -475.5 387.794 -475.5 250C-475.5 112.206 -363.49 0.5 -225.315 0.5C-87.1404 0.5 24.8699 112.206 24.8699 250Z" stroke="#19191C"/>
</svg>
