<svg width="20" height="17" viewBox="0 0 20 17" fill="none" xmlns="http://www.w3.org/2000/svg">
<path fill-rule="evenodd" clip-rule="evenodd" d="M10.2205 0.0271432C10.0757 -0.00904774 9.92428 -0.00904774 9.77951 0.0271432L0.688604 2.29987C0.283907 2.40104 0 2.76467 0 3.18182C0 3.59897 0.283907 3.96259 0.688604 4.06377L1.36364 4.23252V11.8182H0.909091C0.407014 11.8182 0 12.2252 0 12.7273V15.4545C0 15.9566 0.407014 16.3636 0.909091 16.3636H3.63636C4.13844 16.3636 4.54545 15.9566 4.54545 15.4545V12.7273C4.54545 12.2252 4.13844 11.8182 3.63636 11.8182H3.18182V4.68707L4.09091 4.91434V9.07755C4.09091 9.39548 4.257 9.69031 4.52892 9.85506C5.31534 8.55708 4.52983 9.85561 4.52983 9.85561L4.53096 9.85629L4.53384 9.85803L4.54212 9.86297L4.56857 9.87852C4.59055 9.89133 4.62117 9.9089 4.65998 9.93056C4.73757 9.97386 4.8481 10.0336 4.98799 10.1042C5.26735 10.2453 5.66615 10.431 6.15533 10.6162C7.12705 10.9842 8.49028 11.3636 10 11.3636C11.5097 11.3636 12.8729 10.9842 13.8447 10.6162C14.3339 10.431 14.7326 10.2453 15.012 10.1042C15.1519 10.0336 15.2624 9.97386 15.34 9.93056C15.3788 9.9089 15.4095 9.89133 15.4314 9.87852L15.4579 9.86297L15.4662 9.85803L15.4702 9.85561L15.4711 9.85506C15.743 9.69031 15.9091 9.39548 15.9091 9.07755V4.91434L19.3114 4.06377C19.7161 3.96259 20 3.59897 20 3.18182C20 2.76467 19.7161 2.40104 19.3114 2.29987L10.2205 0.0271432ZM15.4711 9.85506C14.9954 9.06987 14.971 9.02975 15.4711 9.85506V9.85506ZM1.81818 13.6364V14.5455H2.72727V13.6364H1.81818ZM14.0909 5.36889L10.2205 6.33649C10.0757 6.37268 9.92428 6.37268 9.77951 6.33649L5.90909 5.36889V8.53169C6.13433 8.64188 6.43698 8.7787 6.79921 8.91587C7.64568 9.2364 8.78244 9.54545 10 9.54545C11.2176 9.54545 12.3543 9.2364 13.2008 8.91587C13.563 8.7787 13.8657 8.64188 14.0909 8.53169V5.36889ZM10 4.51748L4.65737 3.18182L10 1.84616L15.3426 3.18182L10 4.51748Z" fill="#5A15EB"/>
</svg>
