<svg width="25" height="16" viewBox="0 0 25 16" fill="none" xmlns="http://www.w3.org/2000/svg">
<path d="M24.8411 7.51173C24.6178 7.20495 19.2963 0 12.4999 0C5.70343 0 0.381739 7.20495 0.158643 7.51144C-0.052881 7.80248 -0.052881 8.19722 0.158643 8.48827C0.381739 8.79505 5.70343 16 12.4999 16C19.2963 16 24.6178 8.795 24.8411 8.48851C25.053 8.19752 25.053 7.80248 24.8411 7.51173ZM12.4999 14.3448C7.49358 14.3448 3.15758 9.56277 1.87403 7.99944C3.15592 6.43473 7.48283 1.65516 12.4999 1.65516C17.506 1.65516 21.8417 6.4364 23.1258 8.00056C21.8439 9.56522 17.5169 14.3448 12.4999 14.3448Z" fill="#101010"/>
<path d="M12.4998 3.03369C9.7731 3.03369 7.55469 5.2613 7.55469 7.99926C7.55469 10.7372 9.7731 12.9648 12.4998 12.9648C15.2264 12.9648 17.4448 10.7372 17.4448 7.99926C17.4448 5.2613 15.2264 3.03369 12.4998 3.03369ZM12.4998 11.3096C10.6819 11.3096 9.20308 9.82462 9.20308 7.99926C9.20308 6.1739 10.6819 4.68891 12.4998 4.68891C14.3176 4.68891 15.7964 6.1739 15.7964 7.99926C15.7964 9.82462 14.3176 11.3096 12.4998 11.3096Z" fill="#101010"/>
</svg>
