<svg width="722" height="1125" viewBox="0 0 722 1125" fill="none" xmlns="http://www.w3.org/2000/svg">
<g opacity="0.5">
<path fill-rule="evenodd" clip-rule="evenodd" d="M19.0757 51.4899L67.7372 100.151L69.1514 98.7372L20.4899 50.0757L69.1515 1.41421L67.7373 0L19.0757 48.6615L-29.5858 0L-31 1.41421L17.6615 50.0757L-31 98.7372L-29.5858 100.151L19.0757 51.4899Z" fill="white"/>
<path fill-rule="evenodd" clip-rule="evenodd" d="M19.0757 182.49L67.7372 231.151L69.1514 229.737L20.4899 181.076L69.1515 132.414L67.7373 131L19.0757 179.662L-29.5858 131L-31 132.414L17.6615 181.076L-31 229.737L-29.5858 231.151L19.0757 182.49Z" fill="white"/>
<path fill-rule="evenodd" clip-rule="evenodd" d="M19.0757 313.49L67.7372 362.151L69.1514 360.737L20.4899 312.076L69.1515 263.414L67.7373 262L19.0757 310.662L-29.5858 262L-31 263.414L17.6615 312.076L-31 360.737L-29.5858 362.151L19.0757 313.49Z" fill="white"/>
<path fill-rule="evenodd" clip-rule="evenodd" d="M19.0757 444.49L67.7372 493.151L69.1514 491.737L20.4899 443.076L69.1515 394.414L67.7373 393L19.0757 441.662L-29.5858 393L-31 394.414L17.6615 443.076L-31 491.737L-29.5858 493.151L19.0757 444.49Z" fill="white"/>
<path fill-rule="evenodd" clip-rule="evenodd" d="M19.0757 575.49L67.7372 624.151L69.1514 622.737L20.4899 574.076L69.1515 525.414L67.7373 524L19.0757 572.662L-29.5858 524L-31 525.414L17.6615 574.076L-31 622.737L-29.5858 624.151L19.0757 575.49Z" fill="white"/>
<path fill-rule="evenodd" clip-rule="evenodd" d="M19.0757 706.49L67.7372 755.151L69.1514 753.737L20.4899 705.076L69.1515 656.414L67.7373 655L19.0757 703.662L-29.5858 655L-31 656.414L17.6615 705.076L-31 753.737L-29.5858 755.151L19.0757 706.49Z" fill="white"/>
<path fill-rule="evenodd" clip-rule="evenodd" d="M19.0757 837.49L67.7372 886.151L69.1514 884.737L20.4899 836.076L69.1515 787.414L67.7373 786L19.0757 834.662L-29.5858 786L-31 787.414L17.6615 836.076L-31 884.737L-29.5858 886.151L19.0757 837.49Z" fill="white"/>
<path fill-rule="evenodd" clip-rule="evenodd" d="M19.0757 968.49L67.7372 1017.15L69.1514 1015.74L20.4899 967.076L69.1515 918.414L67.7373 917L19.0757 965.662L-29.5858 917L-31 918.414L17.6615 967.076L-31 1015.74L-29.5858 1017.15L19.0757 968.49Z" fill="white"/>
<path fill-rule="evenodd" clip-rule="evenodd" d="M19.0757 1099.49L67.7372 1148.15L69.1514 1146.74L20.4899 1098.08L69.1515 1049.41L67.7373 1048L19.0757 1096.66L-29.5858 1048L-31 1049.41L17.6615 1098.08L-31 1146.74L-29.5858 1148.15L19.0757 1099.49Z" fill="white"/>
<path fill-rule="evenodd" clip-rule="evenodd" d="M149.502 51.4899L198.163 100.151L199.578 98.7372L150.916 50.0757L199.578 1.41421L198.163 0L149.502 48.6615L100.84 0L99.4261 1.41421L148.088 50.0757L99.4262 98.7372L100.84 100.151L149.502 51.4899Z" fill="white"/>
<path fill-rule="evenodd" clip-rule="evenodd" d="M149.502 182.49L198.163 231.151L199.578 229.737L150.916 181.076L199.578 132.414L198.163 131L149.502 179.662L100.84 131L99.4261 132.414L148.088 181.076L99.4262 229.737L100.84 231.151L149.502 182.49Z" fill="white"/>
<path fill-rule="evenodd" clip-rule="evenodd" d="M149.502 313.49L198.163 362.151L199.578 360.737L150.916 312.076L199.578 263.414L198.163 262L149.502 310.662L100.84 262L99.4261 263.414L148.088 312.076L99.4262 360.737L100.84 362.151L149.502 313.49Z" fill="white"/>
<path fill-rule="evenodd" clip-rule="evenodd" d="M149.502 444.49L198.163 493.151L199.578 491.737L150.916 443.076L199.578 394.414L198.163 393L149.502 441.662L100.84 393L99.4261 394.414L148.088 443.076L99.4262 491.737L100.84 493.151L149.502 444.49Z" fill="white"/>
<path fill-rule="evenodd" clip-rule="evenodd" d="M149.502 575.49L198.163 624.151L199.578 622.737L150.916 574.076L199.578 525.414L198.163 524L149.502 572.662L100.84 524L99.4261 525.414L148.088 574.076L99.4262 622.737L100.84 624.151L149.502 575.49Z" fill="white"/>
<path fill-rule="evenodd" clip-rule="evenodd" d="M149.502 706.49L198.163 755.151L199.578 753.737L150.916 705.076L199.578 656.414L198.163 655L149.502 703.662L100.84 655L99.4261 656.414L148.088 705.076L99.4262 753.737L100.84 755.151L149.502 706.49Z" fill="white"/>
<path fill-rule="evenodd" clip-rule="evenodd" d="M149.502 837.49L198.163 886.151L199.578 884.737L150.916 836.076L199.578 787.414L198.163 786L149.502 834.662L100.84 786L99.4261 787.414L148.088 836.076L99.4262 884.737L100.84 886.151L149.502 837.49Z" fill="white"/>
<path fill-rule="evenodd" clip-rule="evenodd" d="M149.502 968.49L198.163 1017.15L199.578 1015.74L150.916 967.076L199.578 918.414L198.163 917L149.502 965.662L100.84 917L99.4261 918.414L148.088 967.076L99.4262 1015.74L100.84 1017.15L149.502 968.49Z" fill="white"/>
<path fill-rule="evenodd" clip-rule="evenodd" d="M149.502 1099.49L198.163 1148.15L199.578 1146.74L150.916 1098.08L199.578 1049.41L198.163 1048L149.502 1096.66L100.84 1048L99.4261 1049.41L148.088 1098.08L99.4262 1146.74L100.84 1148.15L149.502 1099.49Z" fill="white"/>
<path fill-rule="evenodd" clip-rule="evenodd" d="M279.928 51.4899L328.59 100.151L330.004 98.7372L281.342 50.0757L330.004 1.41421L328.59 0L279.928 48.6615L231.267 0L229.852 1.41421L278.514 50.0757L229.852 98.7372L231.267 100.151L279.928 51.4899Z" fill="white"/>
<path fill-rule="evenodd" clip-rule="evenodd" d="M279.928 182.49L328.59 231.151L330.004 229.737L281.342 181.076L330.004 132.414L328.59 131L279.928 179.662L231.267 131L229.852 132.414L278.514 181.076L229.852 229.737L231.267 231.151L279.928 182.49Z" fill="white"/>
<path fill-rule="evenodd" clip-rule="evenodd" d="M279.928 313.49L328.59 362.151L330.004 360.737L281.342 312.076L330.004 263.414L328.59 262L279.928 310.662L231.267 262L229.852 263.414L278.514 312.076L229.852 360.737L231.267 362.151L279.928 313.49Z" fill="white"/>
<path fill-rule="evenodd" clip-rule="evenodd" d="M279.928 444.49L328.59 493.151L330.004 491.737L281.342 443.076L330.004 394.414L328.59 393L279.928 441.662L231.267 393L229.852 394.414L278.514 443.076L229.852 491.737L231.267 493.151L279.928 444.49Z" fill="white"/>
<path fill-rule="evenodd" clip-rule="evenodd" d="M279.928 575.49L328.59 624.151L330.004 622.737L281.342 574.076L330.004 525.414L328.59 524L279.928 572.662L231.267 524L229.852 525.414L278.514 574.076L229.852 622.737L231.267 624.151L279.928 575.49Z" fill="white"/>
<path fill-rule="evenodd" clip-rule="evenodd" d="M279.928 706.49L328.59 755.151L330.004 753.737L281.342 705.076L330.004 656.414L328.59 655L279.928 703.662L231.267 655L229.852 656.414L278.514 705.076L229.852 753.737L231.267 755.151L279.928 706.49Z" fill="white"/>
<path fill-rule="evenodd" clip-rule="evenodd" d="M279.928 837.49L328.59 886.151L330.004 884.737L281.342 836.076L330.004 787.414L328.59 786L279.928 834.662L231.267 786L229.852 787.414L278.514 836.076L229.852 884.737L231.267 886.151L279.928 837.49Z" fill="white"/>
<path fill-rule="evenodd" clip-rule="evenodd" d="M279.928 968.49L328.59 1017.15L330.004 1015.74L281.342 967.076L330.004 918.414L328.59 917L279.928 965.662L231.267 917L229.852 918.414L278.514 967.076L229.852 1015.74L231.267 1017.15L279.928 968.49Z" fill="white"/>
<path fill-rule="evenodd" clip-rule="evenodd" d="M279.928 1099.49L328.59 1148.15L330.004 1146.74L281.342 1098.08L330.004 1049.41L328.59 1048L279.928 1096.66L231.267 1048L229.852 1049.41L278.514 1098.08L229.852 1146.74L231.267 1148.15L279.928 1099.49Z" fill="white"/>
<path fill-rule="evenodd" clip-rule="evenodd" d="M410.354 51.4899L459.016 100.151L460.43 98.7372L411.768 50.0757L460.43 1.41421L459.016 0L410.354 48.6615L361.693 0L360.278 1.41421L408.94 50.0757L360.278 98.7372L361.693 100.151L410.354 51.4899Z" fill="white"/>
<path fill-rule="evenodd" clip-rule="evenodd" d="M410.354 182.49L459.016 231.151L460.43 229.737L411.768 181.076L460.43 132.414L459.016 131L410.354 179.662L361.693 131L360.278 132.414L408.94 181.076L360.278 229.737L361.693 231.151L410.354 182.49Z" fill="white"/>
<path fill-rule="evenodd" clip-rule="evenodd" d="M410.354 313.49L459.016 362.151L460.43 360.737L411.768 312.076L460.43 263.414L459.016 262L410.354 310.662L361.693 262L360.278 263.414L408.94 312.076L360.278 360.737L361.693 362.151L410.354 313.49Z" fill="white"/>
<path fill-rule="evenodd" clip-rule="evenodd" d="M410.354 444.49L459.016 493.151L460.43 491.737L411.768 443.076L460.43 394.414L459.016 393L410.354 441.662L361.693 393L360.278 394.414L408.94 443.076L360.278 491.737L361.693 493.151L410.354 444.49Z" fill="white"/>
<path fill-rule="evenodd" clip-rule="evenodd" d="M410.354 575.49L459.016 624.151L460.43 622.737L411.768 574.076L460.43 525.414L459.016 524L410.354 572.662L361.693 524L360.278 525.414L408.94 574.076L360.278 622.737L361.693 624.151L410.354 575.49Z" fill="white"/>
<path fill-rule="evenodd" clip-rule="evenodd" d="M410.354 706.49L459.016 755.151L460.43 753.737L411.768 705.076L460.43 656.414L459.016 655L410.354 703.662L361.693 655L360.278 656.414L408.94 705.076L360.278 753.737L361.693 755.151L410.354 706.49Z" fill="white"/>
<path fill-rule="evenodd" clip-rule="evenodd" d="M410.354 837.49L459.016 886.151L460.43 884.737L411.768 836.076L460.43 787.414L459.016 786L410.354 834.662L361.693 786L360.278 787.414L408.94 836.076L360.278 884.737L361.693 886.151L410.354 837.49Z" fill="white"/>
<path fill-rule="evenodd" clip-rule="evenodd" d="M410.354 968.49L459.016 1017.15L460.43 1015.74L411.768 967.076L460.43 918.414L459.016 917L410.354 965.662L361.693 917L360.278 918.414L408.94 967.076L360.278 1015.74L361.693 1017.15L410.354 968.49Z" fill="white"/>
<path fill-rule="evenodd" clip-rule="evenodd" d="M410.354 1099.49L459.016 1148.15L460.43 1146.74L411.768 1098.08L460.43 1049.41L459.016 1048L410.354 1096.66L361.693 1048L360.278 1049.41L408.94 1098.08L360.278 1146.74L361.693 1148.15L410.354 1099.49Z" fill="white"/>
<path fill-rule="evenodd" clip-rule="evenodd" d="M540.78 51.4899L589.442 100.151L590.856 98.7372L542.195 50.0757L590.856 1.41421L589.442 0L540.78 48.6615L492.119 0L490.705 1.41421L539.366 50.0757L490.705 98.7372L492.119 100.151L540.78 51.4899Z" fill="white"/>
<path fill-rule="evenodd" clip-rule="evenodd" d="M540.78 182.49L589.442 231.151L590.856 229.737L542.195 181.076L590.856 132.414L589.442 131L540.78 179.662L492.119 131L490.705 132.414L539.366 181.076L490.705 229.737L492.119 231.151L540.78 182.49Z" fill="white"/>
<path fill-rule="evenodd" clip-rule="evenodd" d="M540.78 313.49L589.442 362.151L590.856 360.737L542.195 312.076L590.856 263.414L589.442 262L540.78 310.662L492.119 262L490.705 263.414L539.366 312.076L490.705 360.737L492.119 362.151L540.78 313.49Z" fill="white"/>
<path fill-rule="evenodd" clip-rule="evenodd" d="M540.78 444.49L589.442 493.151L590.856 491.737L542.195 443.076L590.856 394.414L589.442 393L540.78 441.662L492.119 393L490.705 394.414L539.366 443.076L490.705 491.737L492.119 493.151L540.78 444.49Z" fill="white"/>
<path fill-rule="evenodd" clip-rule="evenodd" d="M540.78 575.49L589.442 624.151L590.856 622.737L542.195 574.076L590.856 525.414L589.442 524L540.78 572.662L492.119 524L490.705 525.414L539.366 574.076L490.705 622.737L492.119 624.151L540.78 575.49Z" fill="white"/>
<path fill-rule="evenodd" clip-rule="evenodd" d="M540.78 706.49L589.442 755.151L590.856 753.737L542.195 705.076L590.856 656.414L589.442 655L540.78 703.662L492.119 655L490.705 656.414L539.366 705.076L490.705 753.737L492.119 755.151L540.78 706.49Z" fill="white"/>
<path fill-rule="evenodd" clip-rule="evenodd" d="M540.78 837.49L589.442 886.151L590.856 884.737L542.195 836.076L590.856 787.414L589.442 786L540.78 834.662L492.119 786L490.705 787.414L539.366 836.076L490.705 884.737L492.119 886.151L540.78 837.49Z" fill="white"/>
<path fill-rule="evenodd" clip-rule="evenodd" d="M540.78 968.49L589.442 1017.15L590.856 1015.74L542.195 967.076L590.856 918.414L589.442 917L540.78 965.662L492.119 917L490.705 918.414L539.366 967.076L490.705 1015.74L492.119 1017.15L540.78 968.49Z" fill="white"/>
<path fill-rule="evenodd" clip-rule="evenodd" d="M540.78 1099.49L589.442 1148.15L590.856 1146.74L542.195 1098.08L590.856 1049.41L589.442 1048L540.78 1096.66L492.119 1048L490.705 1049.41L539.366 1098.08L490.705 1146.74L492.119 1148.15L540.78 1099.49Z" fill="white"/>
<path fill-rule="evenodd" clip-rule="evenodd" d="M671.206 51.4899L719.868 100.151L721.282 98.7372L672.621 50.0757L721.282 1.41421L719.868 0L671.206 48.6615L622.545 0L621.131 1.41421L669.792 50.0757L621.131 98.7372L622.545 100.151L671.206 51.4899Z" fill="white"/>
<path fill-rule="evenodd" clip-rule="evenodd" d="M671.206 182.49L719.868 231.151L721.282 229.737L672.621 181.076L721.282 132.414L719.868 131L671.206 179.662L622.545 131L621.131 132.414L669.792 181.076L621.131 229.737L622.545 231.151L671.206 182.49Z" fill="white"/>
<path fill-rule="evenodd" clip-rule="evenodd" d="M671.206 313.49L719.868 362.151L721.282 360.737L672.621 312.076L721.282 263.414L719.868 262L671.206 310.662L622.545 262L621.131 263.414L669.792 312.076L621.131 360.737L622.545 362.151L671.206 313.49Z" fill="white"/>
<path fill-rule="evenodd" clip-rule="evenodd" d="M671.206 444.49L719.868 493.151L721.282 491.737L672.621 443.076L721.282 394.414L719.868 393L671.206 441.662L622.545 393L621.131 394.414L669.792 443.076L621.131 491.737L622.545 493.151L671.206 444.49Z" fill="white"/>
<path fill-rule="evenodd" clip-rule="evenodd" d="M671.206 575.49L719.868 624.151L721.282 622.737L672.621 574.076L721.282 525.414L719.868 524L671.206 572.662L622.545 524L621.131 525.414L669.792 574.076L621.131 622.737L622.545 624.151L671.206 575.49Z" fill="white"/>
<path fill-rule="evenodd" clip-rule="evenodd" d="M671.206 706.49L719.868 755.151L721.282 753.737L672.621 705.076L721.282 656.414L719.868 655L671.206 703.662L622.545 655L621.131 656.414L669.792 705.076L621.131 753.737L622.545 755.151L671.206 706.49Z" fill="white"/>
<path fill-rule="evenodd" clip-rule="evenodd" d="M671.206 837.49L719.868 886.151L721.282 884.737L672.621 836.076L721.282 787.414L719.868 786L671.206 834.662L622.545 786L621.131 787.414L669.792 836.076L621.131 884.737L622.545 886.151L671.206 837.49Z" fill="white"/>
<path fill-rule="evenodd" clip-rule="evenodd" d="M671.206 968.49L719.868 1017.15L721.282 1015.74L672.621 967.076L721.282 918.414L719.868 917L671.206 965.662L622.545 917L621.131 918.414L669.792 967.076L621.131 1015.74L622.545 1017.15L671.206 968.49Z" fill="white"/>
<path fill-rule="evenodd" clip-rule="evenodd" d="M671.206 1099.49L719.868 1148.15L721.282 1146.74L672.621 1098.08L721.282 1049.41L719.868 1048L671.206 1096.66L622.545 1048L621.131 1049.41L669.792 1098.08L621.131 1146.74L622.545 1148.15L671.206 1099.49Z" fill="white"/>
<circle cx="19.4261" cy="50" r="10" fill="#DCDFE2"/>
<circle cx="19.4261" cy="181" r="10" fill="#DCDFE2"/>
<circle cx="19.4261" cy="313" r="10" fill="#DCDFE2"/>
<circle cx="19.4261" cy="443" r="10" fill="#DCDFE2"/>
<circle cx="21.4261" cy="574" r="10" fill="#DCDFE2"/>
<circle cx="19.4261" cy="705" r="10" fill="#DCDFE2"/>
<circle cx="19.4261" cy="836" r="10" fill="#DCDFE2"/>
<circle cx="20.4261" cy="967" r="10" fill="#DCDFE2"/>
<circle cx="20.4261" cy="1098" r="10" fill="#DCDFE2"/>
<circle cx="149.426" cy="50" r="10" fill="#DCDFE2"/>
<circle cx="149.426" cy="181" r="10" fill="#DCDFE2"/>
<circle cx="149.426" cy="313" r="10" fill="#DCDFE2"/>
<circle cx="149.426" cy="443" r="10" fill="#DCDFE2"/>
<circle cx="151.426" cy="574" r="10" fill="#DCDFE2"/>
<circle cx="149.426" cy="705" r="10" fill="#DCDFE2"/>
<circle cx="149.426" cy="836" r="10" fill="#DCDFE2"/>
<circle cx="150.426" cy="967" r="10" fill="#DCDFE2"/>
<circle cx="150.426" cy="1098" r="10" fill="#DCDFE2"/>
<circle cx="279.426" cy="50" r="10" fill="#DCDFE2"/>
<circle cx="279.426" cy="181" r="10" fill="#DCDFE2"/>
<circle cx="279.426" cy="313" r="10" fill="#DCDFE2"/>
<circle cx="279.426" cy="443" r="10" fill="#DCDFE2"/>
<circle cx="279.426" cy="574" r="10" fill="#DCDFE2"/>
<circle cx="279.426" cy="705" r="10" fill="#DCDFE2"/>
<circle cx="279.426" cy="836" r="10" fill="#DCDFE2"/>
<circle cx="280.426" cy="967" r="10" fill="#DCDFE2"/>
<circle cx="280.426" cy="1098" r="10" fill="#DCDFE2"/>
<circle cx="409.426" cy="50" r="10" fill="#DCDFE2"/>
<circle cx="409.426" cy="181" r="10" fill="#DCDFE2"/>
<circle cx="409.426" cy="313" r="10" fill="#DCDFE2"/>
<circle cx="409.426" cy="445" r="10" fill="#DCDFE2"/>
<circle cx="409.426" cy="577" r="10" fill="#DCDFE2"/>
<circle cx="410.426" cy="705" r="10" fill="#DCDFE2"/>
<circle cx="409.426" cy="841" r="10" fill="#DCDFE2"/>
<circle cx="410.426" cy="967" r="10" fill="#DCDFE2"/>
<circle cx="410.426" cy="1098" r="10" fill="#DCDFE2"/>
<circle cx="539.426" cy="50" r="10" fill="#DCDFE2"/>
<circle cx="539.426" cy="181" r="10" fill="#DCDFE2"/>
<circle cx="539.426" cy="313" r="10" fill="#DCDFE2"/>
<circle cx="539.426" cy="445" r="10" fill="#DCDFE2"/>
<circle cx="539.426" cy="577" r="10" fill="#DCDFE2"/>
<circle cx="540.426" cy="705" r="10" fill="#DCDFE2"/>
<circle cx="540.426" cy="836" r="10" fill="#DCDFE2"/>
<circle cx="540.426" cy="967" r="10" fill="#DCDFE2"/>
<circle cx="540.426" cy="1098" r="10" fill="#DCDFE2"/>
<circle cx="669.426" cy="50" r="10" fill="#DCDFE2"/>
<circle cx="669.426" cy="181" r="10" fill="#DCDFE2"/>
<circle cx="669.426" cy="313" r="10" fill="#DCDFE2"/>
<circle cx="670.426" cy="443" r="10" fill="#DCDFE2"/>
<circle cx="670.426" cy="574" r="10" fill="#DCDFE2"/>
<circle cx="670.426" cy="705" r="10" fill="#DCDFE2"/>
<circle cx="670.426" cy="836" r="10" fill="#DCDFE2"/>
<circle cx="670.426" cy="967" r="10" fill="#DCDFE2"/>
<circle cx="670.426" cy="1098" r="10" fill="#DCDFE2"/>
</g>
</svg>
