<svg width="17" height="17" viewBox="0 0 17 17" fill="none" xmlns="http://www.w3.org/2000/svg">
<path opacity="0.5" fill-rule="evenodd" clip-rule="evenodd" d="M2.975 1.7C2.27084 1.7 1.7 2.27084 1.7 2.975C1.7 3.67916 2.27084 4.25 2.975 4.25C3.67916 4.25 4.25 3.67916 4.25 2.975C4.25 2.27084 3.67916 1.7 2.975 1.7ZM1.2666e-08 2.975C1.2666e-08 1.33195 1.33195 1.2666e-08 2.975 1.2666e-08C4.61805 1.2666e-08 5.95 1.33195 5.95 2.975C5.95 4.61805 4.61805 5.95 2.975 5.95C1.33195 5.95 1.2666e-08 4.61805 1.2666e-08 2.975ZM16.751 0.248959C17.083 0.580905 17.083 1.1191 16.751 1.45104L1.45104 16.751C1.1191 17.083 0.580905 17.083 0.248959 16.751C-0.0829864 16.4191 -0.0829864 15.8809 0.248959 15.549L15.549 0.248959C15.8809 -0.0829864 16.4191 -0.0829864 16.751 0.248959ZM14.025 12.75C13.3208 12.75 12.75 13.3208 12.75 14.025C12.75 14.7292 13.3208 15.3 14.025 15.3C14.7292 15.3 15.3 14.7292 15.3 14.025C15.3 13.3208 14.7292 12.75 14.025 12.75ZM11.05 14.025C11.05 12.382 12.382 11.05 14.025 11.05C15.668 11.05 17 12.382 17 14.025C17 15.668 15.668 17 14.025 17C12.382 17 11.05 15.668 11.05 14.025Z" fill="#979FAA"/>
</svg>
