<svg width="20" height="13" viewBox="0 0 20 13" fill="none" xmlns="http://www.w3.org/2000/svg">
<path opacity="0.5" fill-rule="evenodd" clip-rule="evenodd" d="M0 0.909091C0 0.407014 0.407014 0 0.909091 0H19.0909C19.593 0 20 0.407014 20 0.909091V11.8182C20 12.3203 19.593 12.7273 19.0909 12.7273H0.909091C0.407014 12.7273 0 12.3203 0 11.8182V0.909091ZM1.81818 5.36362V7.36365C3.59921 7.72518 5.00209 9.12806 5.36362 10.9091H14.6364C14.9979 9.12806 16.4008 7.72518 18.1818 7.36365V5.36362C16.4008 5.00209 14.9979 3.59922 14.6364 1.81818H5.36362C5.00209 3.59922 3.59921 5.00209 1.81818 5.36362ZM3.48118 1.81818H1.81818V3.48118C2.59311 3.20728 3.20728 2.59311 3.48118 1.81818ZM16.5188 1.81818C16.7927 2.59311 17.4069 3.20729 18.1818 3.48118V1.81818H16.5188ZM18.1818 9.24609C17.4069 9.51999 16.7927 10.1342 16.5188 10.9091H18.1818V9.24609ZM3.48118 10.9091C3.20728 10.1342 2.59311 9.51999 1.81818 9.24609V10.9091H3.48118ZM6.81818 6.36364C6.81818 4.51757 8.09459 2.72727 10 2.72727C11.9054 2.72727 13.1818 4.51757 13.1818 6.36364C13.1818 8.20971 11.9054 10 10 10C8.09459 10 6.81818 8.20971 6.81818 6.36364ZM10 4.54545C9.39505 4.54545 8.63636 5.19725 8.63636 6.36364C8.63636 7.53002 9.39505 8.18182 10 8.18182C10.6049 8.18182 11.3636 7.53002 11.3636 6.36364C11.3636 5.19725 10.6049 4.54545 10 4.54545Z" fill="#979FAA"/>
</svg>
