<svg width="200" height="393" viewBox="0 0 200 393" fill="none" xmlns="http://www.w3.org/2000/svg">
<g opacity="0.5">
<mask id="path-1-inside-1_576_2" fill="white">
<path d="M394.494 196.5C394.494 222.305 389.392 247.857 379.48 271.697C369.567 295.538 355.038 317.2 336.722 335.446C318.406 353.693 296.661 368.167 272.73 378.042C248.799 387.917 223.15 393 197.247 393C171.344 393 145.695 387.917 121.764 378.042C97.8328 368.167 76.0884 353.693 57.7723 335.446C39.4563 317.2 24.9271 295.538 15.0145 271.697C5.10194 247.857 -2.2645e-06 222.305 0 196.5L197.247 196.5H394.494Z"/>
</mask>
<path d="M394.494 196.5C394.494 222.305 389.392 247.857 379.48 271.697C369.567 295.538 355.038 317.2 336.722 335.446C318.406 353.693 296.661 368.167 272.73 378.042C248.799 387.917 223.15 393 197.247 393C171.344 393 145.695 387.917 121.764 378.042C97.8328 368.167 76.0884 353.693 57.7723 335.446C39.4563 317.2 24.9271 295.538 15.0145 271.697C5.10194 247.857 -2.2645e-06 222.305 0 196.5L197.247 196.5H394.494Z" fill="#19191C" stroke="#979FAA" stroke-width="2" mask="url(#path-1-inside-1_576_2)"/>
</g>
<path opacity="0.5" d="M294.618 295C294.618 348.846 250.801 392.5 196.745 392.5C142.69 392.5 98.8726 348.846 98.8726 295C98.8726 241.154 142.69 197.5 196.745 197.5C250.801 197.5 294.618 241.154 294.618 295Z" fill="#19191C" stroke="#979FAA"/>
<path d="M145.994 279C145.994 272.434 147.287 265.932 149.8 259.866C152.313 253.8 155.996 248.288 160.639 243.645C165.282 239.002 170.794 235.319 176.86 232.806C182.926 230.293 189.428 229 195.994 229C202.56 229 209.062 230.293 215.128 232.806C221.195 235.319 226.707 239.002 231.349 243.645C235.992 248.288 239.675 253.8 242.188 259.866C244.701 265.932 245.994 272.434 245.994 279L195.994 279L145.994 279Z" fill="#5A15EB"/>
</svg>
