<svg width="17" height="20" viewBox="0 0 17 20" fill="none" xmlns="http://www.w3.org/2000/svg">
<path d="M10.7368 0C11.6802 0 12.4531 0.741701 12.5214 1.68249L12.5263 1.81818V2.72727H15.2105C16.1539 2.72727 16.9268 3.46898 16.9951 4.40976L17 4.54545V18.1818C17 19.186 16.1988 20 15.2105 20H4.47368C3.48539 20 2.68421 19.186 2.68421 18.1818H1.78947C0.846091 18.1818 0.0732201 17.4401 0.00490824 16.4993L0 16.3636V1.81818C0 0.859667 0.729992 0.0743949 1.65592 0.00498701L1.78947 0H10.7368ZM15.2105 4.54545H4.47368V18.1818H15.2105V4.54545ZM10.7368 1.81818H1.78947V16.3636H2.68421V4.54545C2.68421 3.58695 3.41421 2.80167 4.34013 2.73226L4.47368 2.72727H10.7368V1.81818ZM9.8421 6.81818C10.5635 6.81818 11.2449 6.99165 11.8483 7.29978C12.0121 7.34104 12.1578 7.42812 12.2718 7.54678C13.502 8.35656 14.3158 9.76356 14.3158 11.3636C14.3158 11.4693 14.3122 11.5742 14.3053 11.6781C14.3196 11.7713 14.3198 11.8694 14.3035 11.9685C14.2916 12.0413 14.2714 12.1107 14.2441 12.1758C13.9141 14.0361 12.4701 15.5026 10.6392 15.8371C10.4816 15.9059 10.3117 15.9249 10.1492 15.8987L10.0362 15.9049L9.8421 15.9091C8.26727 15.9091 6.88249 15.0823 6.0853 13.8326C5.96873 13.7165 5.88302 13.5684 5.84229 13.4023C5.53915 12.789 5.36842 12.0966 5.36842 11.3636C5.36842 8.85328 7.37137 6.81818 9.8421 6.81818ZM9.8421 8.63636C8.35967 8.63636 7.15789 9.85743 7.15789 11.3636C7.15789 11.5952 7.1863 11.82 7.23977 12.0347C7.44903 11.8514 7.60526 11.5925 7.60526 11.3636C7.60526 10.8616 8.00585 10.4545 8.5 10.4545C8.99415 10.4545 9.39474 10.8616 9.39474 11.3636C9.39474 12.2174 8.92062 13.0363 8.23852 13.5501C8.5546 13.7907 8.92507 13.9615 9.32765 14.0409C9.45168 13.1129 9.94055 12.0846 10.6472 11.5462C10.9482 11.3169 11.2895 11.1522 11.66 11.0423C11.9359 10.9605 12.2136 10.9115 12.4867 10.8884C12.4218 10.5179 12.2836 10.1721 12.0873 9.86845C11.7147 10.5034 11.1144 10.9091 10.2895 10.9091C9.79532 10.9091 9.39474 10.5021 9.39474 10C9.39474 9.53379 9.74014 9.14954 10.1851 9.09703L10.2895 9.09091C10.4538 9.09091 10.5354 9.01722 10.626 8.77171L10.6313 8.75615C10.3818 8.67828 10.1167 8.63636 9.8421 8.63636ZM12.1234 12.8015L12.1613 12.7877C11.9868 12.8394 11.839 12.9108 11.7207 13.0009C11.5459 13.1341 11.3825 13.3775 11.2634 13.6769C11.6122 13.4558 11.9067 13.1557 12.1234 12.8015Z" fill="#5A15EB"/>
</svg>
