<svg width="50" height="50" viewBox="0 0 50 50" fill="none" xmlns="http://www.w3.org/2000/svg">
<rect opacity="0.3" x="0.5" y="0.5" width="49" height="49" rx="24.5" fill="#DCDFE2" stroke="#979FAA"/>
<path fill-rule="evenodd" clip-rule="evenodd" d="M23.6502 14.0817C26.0843 13.7833 28.5482 14.3077 30.6498 15.5715C32.7513 16.8354 34.3696 18.7659 35.2471 21.0559C36.0954 23.2698 36.2041 25.6967 35.5607 27.9741L27.9746 35.5606C25.6972 36.2041 23.2704 36.0955 21.0564 35.2473C18.7664 34.3699 16.8357 32.7517 15.5718 30.6502C14.3079 28.5487 13.7833 26.0848 14.0816 23.6508C14.3799 21.2167 15.4839 18.9524 17.2179 17.2183C18.9519 15.4842 21.2162 14.3801 23.6502 14.0817ZM31.6805 13.8576C29.1964 12.3637 26.284 11.7438 23.4069 12.0965C20.5297 12.4493 17.8533 13.7544 15.8037 15.8041C13.7541 17.8538 12.4491 20.5303 12.0965 23.4075C11.7439 26.2846 12.3639 29.197 13.8579 31.681C15.3519 34.165 17.634 36.0778 20.3408 37.1149C23.0476 38.1519 26.0236 38.2537 28.7949 37.4038C28.9511 37.3559 29.0932 37.2704 29.2088 37.1549L37.1551 29.2082C37.2706 29.0927 37.3561 28.9505 37.404 28.7943C38.2537 26.0229 38.1519 23.047 37.1147 20.3402C36.0775 17.6335 34.1646 15.3515 31.6805 13.8576ZM21.9745 22.4746C21.9745 23.303 21.3029 23.9746 20.4745 23.9746C19.6461 23.9746 18.9745 23.303 18.9745 22.4746C18.9745 21.6462 19.6461 20.9746 20.4745 20.9746C21.3029 20.9746 21.9745 21.6462 21.9745 22.4746ZM29.4745 23.9746C30.3029 23.9746 30.9745 23.303 30.9745 22.4746C30.9745 21.6462 30.3029 20.9746 29.4745 20.9746C28.6461 20.9746 27.9745 21.6462 27.9745 22.4746C27.9745 23.303 28.6461 23.9746 29.4745 23.9746ZM31.0379 28.4747C31.3141 27.9965 31.1503 27.3849 30.672 27.1086C30.1938 26.8324 29.5822 26.9962 29.306 27.4745C28.8669 28.2347 28.2355 28.866 27.4752 29.305C26.7148 29.7439 25.8524 29.9749 24.9745 29.9749C24.0966 29.9749 23.2341 29.7439 22.4738 29.305C21.7134 28.8661 21.082 28.2348 20.6429 27.4746C20.3667 26.9963 19.7551 26.8325 19.2769 27.1087C18.7986 27.3849 18.6348 27.9965 18.911 28.4748C19.5256 29.539 20.4095 30.4227 21.4739 31.0371C22.5382 31.6515 23.7455 31.975 24.9745 31.9749C26.2034 31.9749 27.4107 31.6515 28.4751 31.0371C29.5394 30.4227 30.4233 29.5389 31.0379 28.4747Z" fill="#5A15EB"/>
</svg>
