<svg width="396" height="320" fill="none" xmlns="http://www.w3.org/2000/svg"><g opacity=".5" stroke="#979FAA"><path d="M395.5 123.5c0 108.246-88.085 196-196.747 196-108.662 0-196.747-87.754-196.747-196s88.085-196 196.747-196c108.662 0 196.747 87.754 196.747 196z" fill="#19191C"/><path d="M296.124 222c0 53.846-43.818 97.5-97.873 97.5-54.055 0-97.873-43.654-97.873-97.5s43.818-97.5 97.873-97.5c54.055 0 97.873 43.654 97.873 97.5z" fill="#19191C"/><path d="M197.247-73v393m197.247-196.5H0"/></g><path d="M147.5 124a49.993 49.993 0 0114.645-35.355 50.002 50.002 0 0181.549 16.221A49.993 49.993 0 01247.5 124h-100z" fill="#5A15EB"/></svg>