<svg width="395" height="393" viewBox="0 0 395 393" fill="none" xmlns="http://www.w3.org/2000/svg">
<g opacity="0.5">
<circle cx="198" cy="196.5" r="196" fill="#DCDFE2" stroke="#979FAA"/>
<circle cx="197.5" cy="295" r="97.5" fill="#DCDFE2" stroke="#979FAA"/>
<path d="M196.5 0L196.5 393" stroke="#979FAA"/>
<path d="M393 196.5L-1.7643e-05 196.5" stroke="#979FAA"/>
</g>
<path d="M147.5 287C147.5 280.434 148.793 273.932 151.306 267.866C153.819 261.8 157.502 256.288 162.145 251.645C166.788 247.002 172.3 243.319 178.366 240.806C184.432 238.293 190.934 237 197.5 237C204.066 237 210.568 238.293 216.634 240.806C222.7 243.319 228.212 247.002 232.855 251.645C237.498 256.288 241.181 261.8 243.694 267.866C246.207 273.932 247.5 280.434 247.5 287L197.5 287L147.5 287Z" fill="#F7F7F7"/>
</svg>
