<svg width="396" height="320" viewBox="0 0 396 320" fill="none" xmlns="http://www.w3.org/2000/svg">
<g opacity="0.5">
<path d="M395.5 123.5C395.5 231.746 307.415 319.5 198.753 319.5C90.0906 319.5 2.00571 231.746 2.00571 123.5C2.00571 15.254 90.0906 -72.5 198.753 -72.5C307.415 -72.5 395.5 15.254 395.5 123.5Z" fill="#19191C" stroke="#979FAA"/>
<path d="M296.124 222C296.124 275.846 252.306 319.5 198.251 319.5C144.196 319.5 100.378 275.846 100.378 222C100.378 168.154 144.196 124.5 198.251 124.5C252.306 124.5 296.124 168.154 296.124 222Z" fill="#19191C" stroke="#979FAA"/>
<path d="M197.247 -73L197.247 320" stroke="#979FAA"/>
<path d="M394.494 123.5L1.95503e-05 123.5" stroke="#979FAA"/>
</g>
<path d="M147.5 124C147.5 117.434 148.793 110.932 151.306 104.866C153.819 98.7995 157.502 93.2876 162.145 88.6447C166.788 84.0017 172.3 80.3187 178.366 77.806C184.432 75.2933 190.934 74 197.5 74C204.066 74 210.568 75.2933 216.634 77.806C222.7 80.3188 228.212 84.0017 232.855 88.6447C237.498 93.2876 241.181 98.7996 243.694 104.866C246.207 110.932 247.5 117.434 247.5 124L197.5 124L147.5 124Z" fill="#5A15EB"/>
</svg>
